<?xml version="1.0" encoding="utf-8"?>
<!-- Generator: Adobe Illustrator 22.1.0, SVG Export Plug-In . SVG Version: 6.00 Build 0)  -->
<svg version="1.1" id="Layer_1" xmlns="http://www.w3.org/2000/svg" xmlns:xlink="http://www.w3.org/1999/xlink" x="0px" y="0px"
	 viewBox="0 0 576 479.5" style="enable-background:new 0 0 576 479.5;" xml:space="preserve">
<style type="text/css">
	.st0{fill:none;}
	.st1{fill:#F9A01B;}
	.st2{fill:#E56020;}
	.st3{fill:#B95915;}
	.st4{fill:#061922;}
</style>
<g>
	<path class="st0" d="M392,370.6"/>
	<polygon class="st1" points="0,479.5 280.3,326 90.2,479.5 320.9,347 317.1,373.7 355.5,352.3 442.4,434.5 488.6,295.5 
		547.3,287.1 521.5,206.9 576,159.5 503.7,129 523.6,44.8 456.9,75.3 425.5,0 369.2,56.1 276.5,7.5 259.9,98.8 174.2,117.4 
		224.9,147.9 173.9,173.5 217.2,177.2 39.1,315.8 218.3,220.6 26,366.9 230.7,260.3 12.1,424.6 253,296.2 	"/>
	<g>
		<path class="st2" d="M512.9,208.2c-3.2,77-68.2,136.9-145.2,133.7c-77-3.2-136.9-68.2-133.7-145.2c3.2-77,68.2-136.9,145.2-133.7
			C456.2,66.1,516.1,131.1,512.9,208.2z"/>
		<path class="st3" d="M390.5,322.8c-77-3.2-136.9-68.2-133.7-145.2C258.3,142,273,110,296,86.3c-35.8,23.9-60.1,64-62,110.4
			c-3.2,77,56.7,142,133.7,145.2c41.4,1.7,79.3-14.8,106-42.4C450,315.3,421.2,324.1,390.5,322.8z"/>
		<path class="st4" d="M513,204c0.1-5-0.1-9.9-0.6-14.8c-8-5.6-17.6-9.9-29-11.4c-2.2-0.3-4.2-0.4-6.3-0.5c-1.4-9.2-3.4-18.2-6.2-27
			c1.4,0.1,2.9,0.1,4.4,0.3c9.8,0.7,19.5,1.8,29,3.2c-1.3-3.6-2.8-7-4.4-10.4c-10.7-1.6-21.6-2.9-32.7-3.7c0,0-0.1,0-0.1,0
			c-3.5-9-7.9-17.6-12.9-25.9c7.1-1.5,13.5-4.4,18.6-9.2c-2.6-2.7-5.4-5.2-8.2-7.7c-4.5,4.1-10.3,6.3-17,7.2c-1-1.4-2-2.9-3.1-4.2
			c-9.5-12.3-20.4-22.9-32.5-31.4c-10.5-3-21.5-4.9-32.9-5.3c-0.6,0-1.3,0-1.9,0c21.2,8.3,40.2,22.4,55.4,41.1
			c-14.5-1.4-31.3-6.3-47.8-11.1c-4.9-1.4-9.7-2.9-14.3-4.1c-28.2-7.8-49.9-9-66.2-7.6c-12.1,6.9-23,15.6-32.6,25.6
			c17.6-7.3,53-19.9,96-7.9c4.6,1.3,9.3,2.6,14.1,4.1c19,5.6,40.3,11.8,58.8,12c5.1,7.6,9.5,15.6,13.1,23.9
			c-3.6-0.2-7.2-0.3-10.8-0.3c-89.6-1.5-166.5,25.3-209.1,68.1c0.2,8.5,1.2,16.8,2.9,24.9c12-17.3,29.8-32.9,52.8-45.8
			c43.4-24.4,101-37.2,162.1-36.2c2.1,0,4.2,0.1,6.3,0.2c3.1,8.9,5.4,18,6.9,27.4c-39.4,1.7-64.9,26.3-94.2,52.4
			c-26.3,23.6-58.4,47-105.4,61.1c4.4,5.4,9.2,10.5,14.5,15.2c44.3-17.8,73.7-45.6,98.6-67.8c28.2-25.2,52.4-49.4,88-50.6
			c0.9,9.8,1,19.9,0,30c-4.8,54.7-36.4,101-79.6,123.9c11-1,21.7-3.4,31.9-6.9c3.5-2.9,6.8-5.9,10.1-9.1
			c28.3-27.9,45.9-65.9,49.5-106.9c0.9-10.3,0.9-20.5,0.1-30.5c1.8,0.2,3.5,0.3,5.4,0.6C495.8,190.6,505.5,196.7,513,204z"/>
	</g>
</g>
</svg>
